<svg width="8" height="23" viewBox="0 0 8 23" fill="none" xmlns="http://www.w3.org/2000/svg">
<path fill-rule="evenodd" clip-rule="evenodd" d="M11.9167 0.5C13.6475 0.5 15.0624 1.853 15.1612 3.55904L15.1667 3.75V7H18.4167C20.1475 7 21.5624 8.353 21.6612 10.059L21.6667 10.25V18.9167C21.6667 20.6475 20.3137 22.0623 18.6077 22.1611L18.4167 22.1667H9.75006C8.01924 22.1667 6.60443 20.8137 6.50558 19.1076L6.50006 18.9167V15.6667H3.25006C1.51924 15.6667 0.104428 14.3137 0.00557812 12.6076L6.10352e-05 12.4167V3.75C6.10352e-05 2.01918 1.35306 0.604367 3.0591 0.505517L3.25006 0.5H11.9167ZM13.0001 9.16667H9.75006C9.19449 9.16667 8.73659 9.58488 8.67402 10.1237L8.66673 10.25V13.5H11.9167C12.4723 13.5 12.9302 13.0818 12.9928 12.543L13.0001 12.4167V9.16667Z" fill="white"/>
</svg>
