<svg width="24" height="22" viewBox="0 0 24 22" fill="none" xmlns="http://www.w3.org/2000/svg">
<path fill-rule="evenodd" clip-rule="evenodd" d="M20.1667 0.666626C22.0997 0.666626 23.6667 2.23363 23.6667 4.16663V6.49996C23.6667 8.43296 22.0997 9.99996 20.1667 9.99996H19V12.3333H20.1667C22.0997 12.3333 23.6667 13.9003 23.6667 15.8333V18.1666C23.6667 20.0996 22.0997 21.6666 20.1667 21.6666H3.83337C1.90038 21.6666 0.333374 20.0996 0.333374 18.1666V15.8333C0.333374 13.9003 1.90038 12.3333 3.83337 12.3333H5.00004V9.99996H3.83337C1.90038 9.99996 0.333374 8.43296 0.333374 6.49996V4.16663C0.333374 2.23363 1.90038 0.666626 3.83337 0.666626H20.1667ZM20.1667 14.6666H3.83338C3.18904 14.6666 2.66671 15.189 2.66671 15.8333V18.1666C2.66671 18.811 3.18904 19.3333 3.83338 19.3333H20.1667C20.811 19.3333 21.3334 18.811 21.3334 18.1666V15.8333C21.3334 15.189 20.811 14.6666 20.1667 14.6666ZM6.16671 15.8333C6.81104 15.8333 7.33338 16.3556 7.33338 17C7.33338 17.6443 6.81104 18.1666 6.16671 18.1666C5.52238 18.1666 5.00004 17.6443 5.00004 17C5.00004 16.3556 5.52238 15.8333 6.16671 15.8333ZM16.6667 9.99996H7.33338V12.3333H16.6667V9.99996ZM20.1667 2.99996H3.83338C3.18904 2.99996 2.66671 3.52229 2.66671 4.16663V6.49996C2.66671 7.14429 3.18904 7.66663 3.83338 7.66663H20.1667C20.811 7.66663 21.3334 7.14429 21.3334 6.49996V4.16663C21.3334 3.52229 20.811 2.99996 20.1667 2.99996ZM6.16671 4.16663C6.81104 4.16663 7.33338 4.68896 7.33338 5.33329C7.33338 5.97763 6.81104 6.49996 6.16671 6.49996C5.52238 6.49996 5.00004 5.97763 5.00004 5.33329C5.00004 4.68896 5.52238 4.16663 6.16671 4.16663Z" fill="white"/>
</svg>
