<svg width="22" height="23" viewBox="0 0 22 23" fill="none" xmlns="http://www.w3.org/2000/svg">
<path fill-rule="evenodd" clip-rule="evenodd" d="M11.9167 0.5C13.6475 0.5 15.0623 1.853 15.1612 3.55904L15.1667 3.75V7H18.4167C20.1475 7 21.5623 8.353 21.6612 10.059L21.6667 10.25V18.9167C21.6667 20.6475 20.3137 22.0623 18.6077 22.1611L18.4167 22.1667H9.75003C8.01921 22.1667 6.6044 20.8137 6.50555 19.1076L6.50003 18.9167V15.6667H3.25003C1.51921 15.6667 0.104398 14.3137 0.0055476 12.6076L3.05176e-05 12.4167V3.75C3.05176e-05 2.01918 1.35303 0.604367 3.05907 0.505517L3.25003 0.5H11.9167ZM13 9.16667H9.75003C9.19446 9.16667 8.73656 9.58488 8.67398 10.1237L8.6667 10.25V13.5H11.9167C12.4723 13.5 12.9302 13.0818 12.9927 12.543L13 12.4167V9.16667Z" fill="white"/>
</svg>
