<svg width="38" height="38" viewBox="0 0 38 38" fill="none" xmlns="http://www.w3.org/2000/svg">
<g clip-path="url(#clip0_10_6136)">
<path d="M19.76 17.29V22.4833H32.1733C31.7933 25.3967 30.8228 27.5294 29.3439 29.0273C27.5278 30.8433 24.7 32.8273 19.76 32.8273C12.1172 32.8273 6.14333 26.6633 6.14333 19.0206C6.14333 11.3778 12.1172 5.21392 19.76 5.21392C23.8767 5.21392 26.8961 6.84 29.1127 8.93L32.7655 5.27725C29.6827 2.28 25.5439 0 19.76 0C9.28942 0 0.486084 8.52942 0.486084 19C0.486084 29.4706 9.28942 38 19.76 38C25.4172 38 29.6827 36.1427 33.0173 32.68C36.4372 29.26 37.5139 24.4261 37.5139 20.5406C37.5139 19.3372 37.43 18.2178 37.24 17.29H19.76Z" fill="#EA4335"/>
</g>
<defs>
<clipPath id="clip0_10_6136">
<rect width="38" height="38" fill="white"/>
</clipPath>
</defs>
</svg>
