<svg width="38" height="32" viewBox="0 0 38 32" fill="none" xmlns="http://www.w3.org/2000/svg">
<path d="M37.9256 4.23584C36.5029 4.86222 34.9958 5.27568 33.4527 5.46293C35.0773 4.48641 36.2938 2.955 36.8774 1.15151C35.3717 2.03026 33.7028 2.66993 31.9263 3.02618C30.7543 1.77286 29.2012 0.941595 27.5083 0.661471C25.8153 0.381348 24.0773 0.668041 22.564 1.47703C21.0507 2.28602 19.8469 3.57203 19.1394 5.13537C18.432 6.69871 18.2605 8.4519 18.6517 10.1227C12.1758 9.81709 6.43942 6.70584 2.59667 2.00651C1.89809 3.19372 1.53372 4.5478 1.54217 5.92526C1.54217 8.63276 2.91967 11.0125 5.0065 12.4106C3.76969 12.3712 2.5602 12.0368 1.47883 11.4353V11.5303C1.47813 13.3295 2.09993 15.0737 3.23872 16.4667C4.37751 17.8598 5.96317 18.8159 7.72667 19.173C6.58397 19.4792 5.38715 19.5252 4.22433 19.3076C4.72486 20.8561 5.6963 22.2097 7.00311 23.1796C8.30991 24.1495 9.88689 24.6873 11.514 24.7178C8.75825 26.8806 5.35559 28.0544 1.8525 28.0508C1.235 28.0508 0.619083 28.0143 0 27.9447C3.57154 30.2315 7.72431 31.4454 11.9653 31.4423C26.2992 31.4423 34.1287 19.5736 34.1287 9.29935C34.1287 8.96684 34.1288 8.63434 34.105 8.30184C35.6345 7.20121 36.9538 5.83472 38 4.26751L37.9256 4.23584Z" fill="#1DA1F2"/>
</svg>
